<svg xmlns="http://www.w3.org/2000/svg" xmlns:xlink="http://www.w3.org/1999/xlink" width="1080" zoomAndPan="magnify" viewBox="0 0 810 809.999993" height="1080" preserveAspectRatio="xMidYMid meet" version="1.0"><defs><clipPath id="6173f466ff"><path d="M 15.324219 35.457031 L 559 35.457031 L 559 344 L 15.324219 344 Z M 15.324219 35.457031 " clip-rule="nonzero"/></clipPath></defs><rect x="-81" width="972" fill="#ffffff" y="-80.999999" height="971.999992" fill-opacity="1"/><rect x="-81" width="972" fill="#071322" y="-80.999999" height="971.999992" fill-opacity="1"/><path fill="#9c7d3c" d="M 309.421875 671.203125 L 305.78125 682.890625 L 320.203125 770.179688 L 329.003906 768.722656 L 312.796875 670.609375 L 310.230469 670.609375 C 309.839844 670.609375 309.539062 670.832031 309.421875 671.203125 Z M 309.421875 671.203125 " fill-opacity="1" fill-rule="nonzero"/><path fill="#9c7d3c" d="M 186.65625 669.214844 C 187.640625 666.046875 190.535156 663.917969 193.851562 663.917969 L 204.921875 663.917969 C 208.625 663.917969 211.753906 666.570312 212.355469 670.226562 L 228.867188 770.179688 L 237.667969 768.722656 L 221.160156 668.773438 C 220.871094 667.035156 220.308594 665.410156 219.546875 663.917969 L 288.359375 663.917969 C 289.363281 661.007812 290.886719 658.402344 292.820312 656.1875 C 286.722656 653.035156 281.566406 648.265625 277.90625 642.328125 L 194.089844 641.96875 C 185.238281 641.929688 177.59375 636.203125 175.074219 627.714844 L 141.210938 513.695312 C 139.082031 506.527344 132.375 501.523438 124.898438 501.523438 L 55.109375 501.523438 C 49.683594 501.523438 44.710938 504.019531 41.46875 508.367188 C 38.226562 512.710938 37.25 518.1875 38.796875 523.386719 L 70.910156 631.523438 C 74.851562 644.789062 86.273438 654.015625 99.839844 655.214844 C 93.753906 656.203125 88.6875 660.515625 86.804688 666.5625 L 55.179688 768.125 L 63.695312 770.777344 L 95.320312 669.214844 C 96.308594 666.046875 99.199219 663.917969 102.519531 663.917969 L 179.230469 663.917969 C 178.800781 664.757812 178.425781 665.636719 178.136719 666.5625 L 176.878906 670.609375 L 146.511719 768.125 L 155.03125 770.777344 L 186.222656 670.609375 Z M 186.65625 669.214844 " fill-opacity="1" fill-rule="nonzero"/><path fill="#9c7d3c" d="M 509.054688 655.808594 L 523.148438 655.871094 L 523.207031 642.488281 L 401.804688 641.96875 C 392.949219 641.929688 385.308594 636.203125 382.785156 627.714844 L 348.921875 513.695312 C 346.792969 506.527344 340.085938 501.523438 332.609375 501.523438 L 262.820312 501.523438 C 257.398438 501.523438 252.425781 504.019531 249.183594 508.363281 C 245.9375 512.710938 244.964844 518.1875 246.507812 523.386719 L 278.625 631.523438 C 282.5625 644.789062 293.988281 654.015625 307.550781 655.214844 C 301.464844 656.199219 296.398438 660.515625 294.515625 666.5625 L 262.890625 768.125 L 271.410156 770.777344 L 303.035156 669.214844 C 304.019531 666.046875 306.914062 663.917969 310.230469 663.917969 L 386.945312 663.917969 C 386.515625 664.757812 386.140625 665.636719 385.851562 666.5625 L 384.589844 670.609375 L 354.226562 768.125 L 362.742188 770.777344 L 393.933594 670.609375 L 394.367188 669.214844 C 395.355469 666.046875 398.246094 663.917969 401.566406 663.917969 L 412.632812 663.917969 C 416.339844 663.917969 419.464844 666.570312 420.070312 670.226562 L 436.578125 770.179688 L 445.378906 768.726562 L 428.871094 668.773438 C 428.582031 667.035156 428.023438 665.410156 427.257812 663.917969 L 503.96875 663.917969 C 507.671875 663.917969 510.800781 666.570312 511.402344 670.226562 L 527.914062 770.179688 L 536.714844 768.726562 L 520.207031 668.773438 C 519.714844 665.808594 518.464844 663.148438 516.671875 660.972656 C 514.695312 658.574219 512.058594 656.777344 509.054688 655.808594 Z M 509.054688 655.808594 " fill-opacity="1" fill-rule="nonzero"/><g clip-path="url(#6173f466ff)"><path fill="#9c7d3c" d="M 83.953125 343.394531 L 106.179688 275.15625 C 116.804688 273.140625 128.128906 270.84375 140.019531 268.21875 L 185.511719 321.414062 L 200.6875 253.054688 C 208.269531 250.929688 215.957031 248.683594 223.738281 246.308594 C 229.742188 244.472656 235.878906 242.527344 242.109375 240.488281 L 293.410156 288.652344 L 301.039062 218.988281 C 312.136719 214.5 323.371094 209.683594 334.660156 204.53125 L 392.257812 246.96875 L 391.558594 175.601562 C 402.085938 169.648438 412.527344 163.363281 422.835938 156.734375 L 486.382812 189.949219 L 474.722656 119.125 C 480.359375 114.503906 485.921875 109.777344 491.367188 104.898438 L 558.480469 123.949219 L 534.171875 60.9375 C 540.402344 53.554688 546.414062 45.953125 552.128906 38.078125 L 548.515625 35.457031 C 543.347656 42.582031 537.953125 49.5 532.351562 56.21875 L 532.324219 56.148438 L 528.230469 61.007812 C 444.472656 158.355469 317.738281 212.914062 222.527344 242.011719 C 110.496094 276.253906 16.765625 283.667969 15.832031 283.738281 L 16.167969 288.183594 C 16.46875 288.164062 26.300781 287.382812 43.199219 285.21875 Z M 83.953125 343.394531 " fill-opacity="1" fill-rule="nonzero"/></g><path fill="#9c7d3c" d="M 438.386719 486.769531 C 439.222656 496.039062 447.003906 503.015625 456.136719 503.015625 C 456.671875 503.015625 457.210938 502.988281 457.753906 502.941406 L 464.367188 502.34375 L 441.625 474.835938 C 439.246094 478.183594 437.988281 482.355469 438.386719 486.769531 Z M 438.386719 486.769531 " fill-opacity="1" fill-rule="nonzero"/><path fill="#9c7d3c" d="M 603.5625 429.15625 L 616.804688 492.160156 L 727.652344 445.574219 L 728.417969 444.980469 C 721.777344 427.804688 714.011719 412.613281 706.679688 401.890625 L 711.140625 399.367188 C 720.15625 412.667969 728.664062 430.851562 734.558594 446.714844 L 646.683594 514.769531 C 638.894531 520.800781 637.46875 532.007812 643.503906 539.796875 C 647.019531 544.339844 652.292969 546.714844 657.621094 546.714844 C 661.4375 546.714844 665.28125 545.496094 668.53125 542.980469 L 766.496094 467.113281 C 772.378906 462.558594 774.816406 454.828125 772.613281 447.722656 C 769.839844 438.78125 759.417969 407.464844 742.285156 381.75 C 731.796875 366.007812 718.796875 352.363281 703.488281 347.246094 C 700.789062 346.347656 698.03125 346.144531 695.390625 346.515625 C 694.246094 346.519531 693.085938 346.640625 691.921875 346.886719 L 607.605469 364.613281 C 604.933594 365.171875 602.550781 366.339844 600.539062 367.917969 C 591.855469 373.746094 582.238281 387.234375 566.695312 424.707031 C 564.585938 429.789062 562.59375 434.789062 560.753906 439.519531 L 586.949219 471.203125 C 592.113281 456.785156 598 441.859375 603.5625 429.15625 Z M 603.5625 429.15625 " fill-opacity="1" fill-rule="nonzero"/><path fill="#9c7d3c" d="M 661.683594 260.585938 C 662.847656 261.75 663.949219 262.964844 664.992188 264.234375 C 666.035156 265.503906 667.011719 266.824219 667.925781 268.191406 C 668.835938 269.554688 669.679688 270.964844 670.457031 272.414062 C 671.230469 273.863281 671.933594 275.347656 672.5625 276.863281 C 673.191406 278.382812 673.742188 279.929688 674.21875 281.5 C 674.699219 283.074219 675.097656 284.667969 675.417969 286.277344 C 675.738281 287.890625 675.976562 289.515625 676.140625 291.148438 C 676.300781 292.785156 676.382812 294.425781 676.382812 296.066406 C 676.382812 297.710938 676.300781 299.351562 676.140625 300.984375 C 675.980469 302.621094 675.738281 304.246094 675.417969 305.855469 C 675.097656 307.46875 674.699219 309.0625 674.222656 310.632812 C 673.742188 312.207031 673.191406 313.753906 672.5625 315.269531 C 671.933594 316.789062 671.230469 318.273438 670.457031 319.722656 C 669.683594 321.171875 668.839844 322.578125 667.925781 323.945312 C 667.011719 325.3125 666.035156 326.628906 664.992188 327.902344 C 663.949219 329.171875 662.847656 330.386719 661.683594 331.550781 C 660.523438 332.710938 659.308594 333.8125 658.035156 334.855469 C 656.765625 335.898438 655.449219 336.878906 654.082031 337.789062 C 652.714844 338.703125 651.308594 339.546875 649.855469 340.320312 C 648.40625 341.097656 646.925781 341.796875 645.40625 342.425781 C 643.886719 343.054688 642.34375 343.609375 640.769531 344.085938 C 639.195312 344.5625 637.605469 344.960938 635.992188 345.28125 C 634.378906 345.605469 632.757812 345.84375 631.121094 346.003906 C 629.484375 346.167969 627.847656 346.246094 626.203125 346.246094 C 624.558594 346.246094 622.921875 346.167969 621.285156 346.003906 C 619.648438 345.84375 618.027344 345.605469 616.414062 345.285156 C 614.800781 344.960938 613.210938 344.5625 611.636719 344.085938 C 610.066406 343.609375 608.519531 343.058594 607 342.429688 C 605.480469 341.800781 604 341.097656 602.550781 340.324219 C 601.101562 339.546875 599.691406 338.703125 598.324219 337.792969 C 596.957031 336.878906 595.640625 335.898438 594.371094 334.859375 C 593.101562 333.816406 591.882812 332.714844 590.722656 331.550781 C 589.558594 330.390625 588.457031 329.171875 587.414062 327.902344 C 586.371094 326.632812 585.394531 325.3125 584.480469 323.945312 C 583.566406 322.582031 582.722656 321.171875 581.949219 319.722656 C 581.175781 318.273438 580.472656 316.789062 579.84375 315.273438 C 579.214844 313.753906 578.660156 312.207031 578.183594 310.636719 C 577.707031 309.0625 577.308594 307.46875 576.988281 305.859375 C 576.667969 304.246094 576.425781 302.625 576.265625 300.988281 C 576.105469 299.351562 576.023438 297.710938 576.023438 296.070312 C 576.023438 294.425781 576.105469 292.785156 576.265625 291.152344 C 576.425781 289.515625 576.667969 287.890625 576.988281 286.28125 C 577.308594 284.667969 577.707031 283.074219 578.183594 281.503906 C 578.660156 279.929688 579.214844 278.386719 579.84375 276.867188 C 580.472656 275.347656 581.171875 273.863281 581.949219 272.414062 C 582.722656 270.964844 583.566406 269.558594 584.480469 268.191406 C 585.394531 266.824219 586.371094 265.507812 587.414062 264.234375 C 588.457031 262.964844 589.558594 261.75 590.71875 260.585938 C 591.882812 259.425781 593.097656 258.324219 594.367188 257.28125 C 595.640625 256.238281 596.957031 255.261719 598.324219 254.347656 C 599.691406 253.433594 601.097656 252.589844 602.546875 251.816406 C 603.996094 251.039062 605.480469 250.339844 607 249.710938 C 608.515625 249.082031 610.0625 248.527344 611.636719 248.050781 C 613.207031 247.574219 614.800781 247.175781 616.414062 246.855469 C 618.023438 246.535156 619.648438 246.292969 621.285156 246.132812 C 622.917969 245.96875 624.558594 245.890625 626.203125 245.890625 C 627.84375 245.890625 629.484375 245.96875 631.121094 246.132812 C 632.753906 246.292969 634.378906 246.53125 635.992188 246.855469 C 637.601562 247.175781 639.195312 247.574219 640.769531 248.050781 C 642.339844 248.527344 643.886719 249.082031 645.402344 249.710938 C 646.921875 250.339844 648.40625 251.039062 649.855469 251.8125 C 651.304688 252.589844 652.714844 253.433594 654.078125 254.347656 C 655.445312 255.257812 656.765625 256.238281 658.035156 257.277344 C 659.304688 258.320312 660.523438 259.425781 661.683594 260.585938 Z M 661.683594 260.585938 " fill-opacity="1" fill-rule="nonzero"/><path fill="#9c7d3c" d="M 657.621094 551.847656 C 650.457031 551.847656 643.832031 548.601562 639.445312 542.941406 C 634.804688 536.945312 633.625 529.367188 635.550781 522.582031 L 630.152344 524.875 C 629.796875 525.03125 629.605469 525.351562 629.644531 525.738281 L 640.960938 638.238281 L 618.773438 640.46875 L 613.304688 586.121094 L 597.550781 740.753906 C 596.003906 755.90625 607.039062 769.433594 622.1875 770.976562 C 637.332031 772.519531 650.871094 761.496094 652.414062 746.34375 L 670.6875 567 L 660.902344 551.597656 C 659.824219 551.753906 658.730469 551.847656 657.621094 551.847656 Z M 657.621094 551.847656 " fill-opacity="1" fill-rule="nonzero"/><path fill="#9c7d3c" d="M 743.988281 514.820312 C 744.003906 514.675781 744.011719 514.53125 744.023438 514.386719 L 734.070312 498.714844 L 680.222656 540.417969 L 691.347656 557.933594 L 696.425781 556.644531 L 699.34375 570.523438 L 718.113281 600.074219 L 707.035156 607.113281 L 737.113281 750.179688 C 740.246094 765.085938 754.871094 774.621094 769.769531 771.488281 C 784.667969 768.359375 794.214844 753.742188 791.082031 738.835938 Z M 743.988281 514.820312 " fill-opacity="1" fill-rule="nonzero"/><path fill="#9c7d3c" d="M 785.398438 567.050781 L 792.925781 562.265625 L 746.464844 489.117188 L 739.382812 494.601562 Z M 785.398438 567.050781 " fill-opacity="1" fill-rule="nonzero"/><path fill="#9c7d3c" d="M 643.542969 510.714844 L 707.160156 461.445312 L 619.164062 498.429688 C 611.003906 501.859375 601.726562 499.578125 596.085938 492.753906 L 520.296875 401.085938 C 515.535156 395.324219 507.402344 393.34375 500.519531 396.269531 L 436.300781 423.585938 C 431.308594 425.710938 427.710938 429.949219 426.425781 435.21875 C 425.144531 440.488281 426.386719 445.910156 429.847656 450.089844 L 501.722656 537.027344 C 510.542969 547.695312 524.664062 551.714844 537.617188 547.507812 C 532.402344 550.796875 529.429688 556.75 530.0625 563.050781 L 540.710938 668.890625 L 549.589844 668 L 538.9375 562.160156 C 538.605469 558.859375 540.433594 555.765625 543.488281 554.46875 L 614.082031 524.445312 C 614.011719 525.386719 614.015625 526.339844 614.109375 527.304688 L 624.757812 633.144531 L 633.636719 632.25 L 622.984375 526.410156 C 622.65625 523.109375 624.484375 520.019531 627.535156 518.722656 L 637.71875 514.390625 C 638.558594 514.035156 639.425781 513.84375 640.285156 513.796875 C 641.253906 512.683594 642.335938 511.648438 643.542969 510.714844 Z M 643.542969 510.714844 " fill-opacity="1" fill-rule="nonzero"/><path fill="#9c7d3c" d="M 674.90625 544.53125 L 671.671875 547.035156 C 670.375 548.042969 668.988281 548.878906 667.542969 549.574219 L 701.347656 602.796875 L 708.878906 598.015625 Z M 674.90625 544.53125 " fill-opacity="1" fill-rule="nonzero"/></svg>