<svg xmlns="http://www.w3.org/2000/svg" xmlns:xlink="http://www.w3.org/1999/xlink" width="1080" zoomAndPan="magnify" viewBox="0 0 810 809.999993" height="1080" preserveAspectRatio="xMidYMid meet" version="1.0"><rect x="-81" width="972" fill="#ffffff" y="-80.999999" height="971.999992" fill-opacity="1"/><rect x="-81" width="972" fill="#071322" y="-80.999999" height="971.999992" fill-opacity="1"/><path fill="#9c7d3c" d="M 405.039062 316.449219 C 395.171875 343.441406 382.710938 369.898438 363.976562 391.691406 C 345.320312 413.558594 319.855469 430.535156 291.488281 434.816406 C 266.027344 438.714844 239.570312 432.21875 217.472656 419.140625 C 229.171875 444.449219 239.417969 470.449219 248.285156 496.90625 C 224.734375 457.066406 201.261719 417.152344 177.785156 377.238281 C 172.894531 368.90625 166.621094 359.652344 156.988281 358.429688 C 144.832031 356.976562 135.808594 343.136719 139.402344 331.359375 C 142.996094 319.660156 158.289062 313.238281 169.144531 318.820312 C 180.082031 324.480469 183.675781 340.613281 176.257812 350.324219 C 173.964844 353.382812 176.105469 357.742188 178.320312 360.800781 C 194.835938 383.433594 216.554688 402.167969 241.328125 415.164062 C 243.851562 416.542969 246.910156 417.765625 249.433594 416.542969 C 251.34375 415.625 252.414062 413.484375 253.257812 411.496094 C 262.8125 388.707031 268.089844 364.164062 268.550781 339.464844 C 268.625 335.71875 267.785156 330.902344 264.113281 330.214844 C 252.1875 328.074219 243.925781 314.078125 247.902344 302.609375 C 251.878906 291.140625 267.019531 285.253906 277.726562 290.988281 C 288.351562 296.644531 291.871094 312.550781 284.53125 322.261719 C 280.9375 326.925781 284.835938 333.578125 288.734375 338.089844 C 305.863281 357.894531 325.363281 375.632812 346.617188 390.925781 C 369.480469 365.464844 386.914062 335.109375 397.46875 302.609375 C 398.921875 298.253906 399.53125 292.363281 395.480469 290.375 C 384.164062 284.792969 380.339844 268.046875 388.140625 258.183594 C 395.9375 248.246094 413.140625 248.015625 421.171875 257.726562 C 429.277344 267.359375 425.910156 284.183594 414.75 290.070312 C 410.160156 292.515625 411.078125 299.324219 412.914062 304.214844 C 423.386719 333.042969 438.527344 360.1875 457.566406 384.273438 C 459.171875 386.414062 461.238281 388.632812 463.914062 388.707031 C 465.902344 388.707031 467.738281 387.410156 469.34375 386.1875 C 488.460938 371.429688 506.121094 354.683594 521.949219 336.332031 C 525.46875 332.277344 528.984375 326.085938 525.621094 321.878906 C 518.050781 312.472656 520.957031 296.722656 531.355469 290.605469 C 541.753906 284.488281 556.972656 289.6875 561.484375 300.851562 C 565.992188 311.9375 558.652344 326.3125 547.03125 329.144531 C 541.679688 330.441406 540.683594 337.554688 540.992188 343.058594 C 542.289062 366.457031 547.640625 389.550781 556.742188 411.1875 C 557.507812 413.023438 558.347656 414.9375 560.105469 415.855469 C 562.476562 417.078125 565.304688 415.855469 567.675781 414.628906 C 593.214844 401.554688 615.617188 382.210938 632.289062 358.8125 C 634.125 356.210938 635.957031 352.542969 633.894531 350.019531 C 626.324219 340.84375 628.769531 325.242188 638.789062 318.898438 C 648.804688 312.550781 664.019531 316.910156 669.144531 327.613281 C 674.191406 338.320312 667.996094 352.847656 656.757812 356.59375 C 653.238281 357.742188 649.492188 358.046875 646.28125 359.882812 C 643.222656 361.640625 641.15625 364.621094 639.246094 367.527344 C 611.488281 408.894531 585.949219 451.640625 562.859375 495.683594 C 570.660156 469.148438 580.523438 443.226562 592.222656 418.148438 C 564.082031 436.269531 527.148438 439.941406 495.953125 427.78125 C 449.84375 409.890625 422.089844 362.789062 405.039062 316.449219 M 283.308594 361.257812 C 282.234375 381.0625 277.570312 400.714844 269.695312 418.835938 C 268.703125 421.128906 272.144531 422.660156 274.589844 422.734375 C 293.933594 423.042969 313.28125 416.925781 328.878906 405.453125 C 329.875 404.691406 331.019531 403.621094 330.714844 402.394531 C 330.484375 401.785156 330.027344 401.324219 329.566406 400.941406 C 314.121094 387.714844 298.753906 374.488281 283.308594 361.257812 M 538.007812 412.183594 C 530.972656 395.894531 527.074219 378.308594 526.613281 360.570312 C 511.015625 373.875 495.417969 387.179688 479.820312 400.484375 C 479.359375 400.789062 478.976562 401.25 478.824219 401.707031 C 478.59375 402.703125 479.4375 403.464844 480.203125 404.078125 C 496.945312 416.769531 518.433594 423.117188 539.382812 421.511719 C 540.683594 418.53125 539.308594 415.164062 538.007812 412.183594 " fill-opacity="1" fill-rule="nonzero"/><path fill="#9c7d3c" d="M 516.75 549.207031 C 459.710938 561.671875 400.527344 561.976562 342.414062 556.777344 C 315.726562 554.40625 288.734375 550.734375 264.34375 539.800781 C 259.753906 537.738281 254.632812 534.601562 254.097656 529.632812 C 277.417969 540.796875 303.492188 544.3125 329.183594 546.914062 C 405.34375 554.328125 483.640625 553.640625 556.664062 530.855469 C 546.417969 541.714844 531.28125 546.070312 516.75 549.207031 " fill-opacity="1" fill-rule="nonzero"/></svg>