<svg xmlns="http://www.w3.org/2000/svg" xmlns:xlink="http://www.w3.org/1999/xlink" width="1080" zoomAndPan="magnify" viewBox="0 0 810 809.999993" height="1080" preserveAspectRatio="xMidYMid meet" version="1.0"><defs><clipPath id="f28ba1c57c"><path d="M 16.019531 267 L 793.769531 267 L 793.769531 547 L 16.019531 547 Z M 16.019531 267 " clip-rule="nonzero"/></clipPath></defs><rect x="-81" width="972" fill="#ffffff" y="-80.999999" height="971.999992" fill-opacity="1"/><rect x="-81" width="972" fill="#071322" y="-80.999999" height="971.999992" fill-opacity="1"/><g clip-path="url(#f28ba1c57c)"><path fill="#9c7d3c" d="M 115.410156 443.757812 C 113.261719 449.472656 110.824219 455.058594 108.09375 460.519531 C 105.367188 465.980469 102.363281 471.285156 99.085938 476.433594 C 95.808594 481.585938 92.273438 486.550781 88.484375 491.335938 C 84.691406 496.117188 80.660156 500.695312 76.394531 505.0625 C 72.128906 509.425781 67.652344 513.5625 62.957031 517.464844 C 58.261719 521.367188 53.378906 525.015625 48.308594 528.414062 C 43.238281 531.808594 38.003906 534.9375 32.605469 537.789062 C 27.210938 540.644531 21.683594 543.214844 16.019531 545.496094 C 17.285156 495.53125 68.425781 443.847656 115.410156 443.757812 Z M 657.535156 326.296875 C 641.453125 361.082031 667.566406 407.617188 710.121094 441.769531 C 735.148438 413.128906 714.550781 355.03125 657.535156 326.386719 Z M 553.628906 286.179688 C 544.59375 323.40625 579.019531 363.523438 625.910156 387.828125 C 645.066406 354.757812 614.347656 302.445312 553.808594 286.269531 Z M 445.203125 267.386719 C 443.667969 305.605469 484.960938 338.40625 535.558594 352.679688 C 546.941406 316.539062 507.367188 271.996094 445.113281 267.476562 Z M 335.152344 270.007812 C 341.117188 307.773438 388.101562 332.078125 440.054688 336.234375 C 444.300781 298.558594 397.042969 262.597656 335.0625 270.097656 Z M 227.179688 294.039062 C 240.460938 329.550781 291.601562 344.546875 343.464844 338.585938 C 340.300781 300.816406 287.082031 274.523438 227.179688 294.039062 Z M 124.988281 339.21875 C 145.136719 371.835938 198.808594 375.359375 248.863281 359.457031 C 238.382812 323.226562 180.554688 307.773438 124.988281 339.398438 Z M 32.015625 406.171875 C 58.398438 433.910156 112.699219 425.507812 159.234375 399.394531 C 141.792969 365.691406 81.4375 362.4375 32.015625 406.171875 Z M 140.710938 529.324219 C 173.597656 499.777344 190.042969 456.136719 172.242188 422.164062 C 125.890625 448.636719 114.417969 501.945312 140.710938 529.324219 Z M 206.488281 482.15625 C 243.625 460.652344 267.839844 421.257812 257.085938 384.484375 C 207.210938 400.929688 186.339844 449.902344 206.488281 482.15625 Z M 278.769531 450.082031 C 318.707031 436.710938 349.96875 402.738281 346.628906 364.605469 C 294.945312 370.933594 265.398438 414.484375 278.769531 450.082031 Z M 355.121094 433.097656 C 396.59375 427.765625 433.910156 400.476562 438.066406 362.4375 C 386.472656 358.644531 348.976562 395.597656 355.121094 433.097656 Z M 432.914062 431.289062 C 474.660156 434 516.765625 414.484375 528.328125 377.980469 C 477.820312 364.15625 434.269531 393.339844 432.914062 431.289062 Z M 509.808594 444.480469 C 550.375 455.324219 596.09375 444.480469 614.617188 411.320312 C 567.183594 387.375 518.570312 407.617188 509.808594 444.480469 Z M 583.355469 472.941406 C 621.394531 492.1875 669.011719 491.375 693.675781 462.371094 C 651.300781 428.398438 599.167969 437.976562 583.355469 472.941406 Z M 779.785156 541.519531 C 783.128906 545.859375 788.097656 547.664062 791.078125 545.496094 C 794.0625 543.328125 793.699219 537.726562 790.265625 533.296875 C 785.605469 527.246094 780.800781 521.308594 775.859375 515.484375 C 770.914062 509.660156 765.835938 503.957031 760.621094 498.375 C 755.40625 492.789062 750.0625 487.335938 744.589844 482.003906 C 739.117188 476.675781 733.519531 471.480469 727.796875 466.417969 C 722.078125 461.351562 716.242188 456.429688 710.285156 451.640625 C 704.332031 446.855469 698.269531 442.214844 692.09375 437.714844 C 685.917969 433.214844 679.640625 428.867188 673.261719 424.667969 C 666.878906 420.464844 660.402344 416.417969 653.828125 412.527344 C 647.253906 408.632812 640.59375 404.898438 633.84375 401.324219 C 627.09375 397.746094 620.261719 394.332031 613.347656 391.082031 C 606.4375 387.828125 599.449219 384.742188 592.390625 381.820312 C 585.332031 378.902344 578.207031 376.152344 571.019531 373.570312 C 563.828125 370.988281 556.582031 368.578125 549.277344 366.339844 C 541.972656 364.101562 534.621094 362.039062 527.21875 360.148438 C 519.816406 358.257812 512.371094 356.546875 504.886719 355.011719 C 497.40625 353.476562 489.890625 352.121094 482.339844 350.941406 C 474.792969 349.761719 467.222656 348.765625 459.625 347.945312 C 452.03125 347.125 444.421875 346.488281 436.796875 346.03125 C 429.167969 345.570312 421.535156 345.296875 413.898438 345.199219 C 406.257812 345.105469 398.621094 345.191406 390.988281 345.457031 C 383.351562 345.726562 375.730469 346.175781 368.117188 346.804688 C 360.503906 347.433594 352.910156 348.242188 345.332031 349.230469 C 337.757812 350.222656 330.210938 351.390625 322.691406 352.738281 C 315.171875 354.085938 307.6875 355.613281 300.242188 357.316406 C 292.796875 359.019531 285.390625 360.898438 278.035156 362.957031 C 270.675781 365.011719 263.371094 367.238281 256.121094 369.640625 C 248.867188 372.042969 241.675781 374.613281 234.546875 377.359375 C 227.417969 380.101562 220.355469 383.011719 213.367188 386.089844 C 206.375 389.171875 199.460938 392.414062 192.621094 395.820312 C 185.785156 399.226562 179.03125 402.792969 172.363281 406.519531 C 165.695312 410.25 159.117188 414.132812 152.632812 418.171875 C 146.152344 422.210938 139.765625 426.402344 133.480469 430.746094 C 338.40625 294.039062 624.917969 333.34375 779.605469 541.339844 Z M 779.785156 541.519531 " fill-opacity="1" fill-rule="nonzero"/></g></svg>