<svg xmlns="http://www.w3.org/2000/svg" xmlns:xlink="http://www.w3.org/1999/xlink" width="1080" zoomAndPan="magnify" viewBox="0 0 810 809.999993" height="1080" preserveAspectRatio="xMidYMid meet" version="1.0"><defs><clipPath id="3b67212028"><path d="M 13 262 L 797.480469 262 L 797.480469 544 L 13 544 Z M 13 262 " clip-rule="nonzero"/></clipPath></defs><rect x="-81" width="972" fill="#ffffff" y="-80.999999" height="971.999992" fill-opacity="1"/><rect x="-81" width="972" fill="#071322" y="-80.999999" height="971.999992" fill-opacity="1"/><g clip-path="url(#3b67212028)"><path fill="#9c7d3c" d="M 697.195312 365.886719 C 699.363281 360.121094 701.824219 354.484375 704.574219 348.972656 C 707.328125 343.464844 710.359375 338.109375 713.664062 332.914062 C 716.972656 327.71875 720.539062 322.707031 724.367188 317.878906 C 728.191406 313.050781 732.257812 308.4375 736.5625 304.03125 C 740.863281 299.625 745.386719 295.453125 750.121094 291.515625 C 754.859375 287.578125 759.785156 283.894531 764.902344 280.46875 C 770.019531 277.039062 775.300781 273.886719 780.746094 271.003906 C 786.1875 268.125 791.769531 265.53125 797.480469 263.230469 C 796.203125 313.644531 744.601562 365.796875 697.195312 365.886719 Z M 150.175781 484.40625 C 166.40625 449.304688 140.058594 402.355469 97.117188 367.890625 C 71.863281 396.792969 92.648438 455.414062 150.175781 484.316406 Z M 255.023438 524.886719 C 264.140625 487.324219 229.402344 446.84375 182.085938 422.320312 C 162.757812 455.6875 193.757812 508.476562 254.839844 524.792969 Z M 364.425781 543.847656 C 365.976562 505.285156 324.3125 472.191406 273.257812 457.785156 C 261.769531 494.253906 301.699219 539.199219 364.515625 543.757812 Z M 475.46875 541.207031 C 469.453125 503.097656 422.042969 478.570312 369.621094 474.378906 C 365.335938 512.394531 413.019531 548.679688 475.5625 541.113281 Z M 584.417969 516.953125 C 571.015625 481.125 519.414062 465.992188 467.082031 472.007812 C 470.273438 510.117188 523.972656 536.648438 584.417969 516.953125 Z M 687.53125 471.371094 C 667.199219 438.457031 613.042969 434.902344 562.535156 450.949219 C 573.113281 487.507812 631.460938 503.097656 687.53125 471.1875 Z M 781.34375 403.8125 C 754.722656 375.824219 699.929688 384.300781 652.976562 410.652344 C 670.574219 444.65625 731.472656 447.9375 781.34375 403.8125 Z M 671.667969 279.550781 C 638.480469 309.359375 621.886719 353.394531 639.847656 387.675781 C 686.617188 360.964844 698.195312 307.171875 671.667969 279.550781 Z M 605.296875 327.140625 C 567.824219 348.835938 543.390625 388.585938 554.242188 425.695312 C 604.566406 409.101562 625.625 359.6875 605.296875 327.140625 Z M 532.359375 359.503906 C 492.0625 372.996094 460.519531 407.277344 463.890625 445.75 C 516.039062 439.367188 545.851562 395.425781 532.359375 359.503906 Z M 455.320312 376.644531 C 413.476562 382.023438 375.820312 409.554688 371.628906 447.9375 C 423.6875 451.769531 461.519531 414.480469 455.320312 376.644531 Z M 376.824219 378.46875 C 334.703125 375.734375 292.21875 395.425781 280.550781 432.257812 C 331.511719 446.207031 375.457031 416.757812 376.824219 378.46875 Z M 299.238281 365.15625 C 258.304688 354.214844 212.171875 365.15625 193.484375 398.617188 C 241.347656 422.777344 290.394531 402.355469 299.238281 365.15625 Z M 225.027344 336.4375 C 186.644531 317.019531 138.597656 317.839844 113.710938 347.105469 C 156.46875 381.386719 209.074219 371.722656 225.027344 336.4375 Z M 26.824219 267.242188 C 23.453125 262.863281 18.4375 261.042969 15.429688 263.230469 C 12.421875 265.417969 12.785156 271.070312 16.25 275.539062 C 20.953125 281.644531 25.800781 287.636719 30.789062 293.511719 C 35.777344 299.390625 40.902344 305.144531 46.164062 310.777344 C 51.421875 316.410156 56.816406 321.917969 62.339844 327.292969 C 67.863281 332.671875 73.507812 337.914062 79.28125 343.023438 C 85.054688 348.132812 90.941406 353.101562 96.949219 357.929688 C 102.957031 362.761719 109.078125 367.445312 115.308594 371.984375 C 121.539062 376.523438 127.871094 380.910156 134.3125 385.148438 C 140.75 389.386719 147.285156 393.472656 153.917969 397.398438 C 160.550781 401.328125 167.273438 405.09375 174.082031 408.703125 C 180.894531 412.3125 187.789062 415.757812 194.761719 419.039062 C 201.738281 422.320312 208.789062 425.433594 215.910156 428.378906 C 223.03125 431.328125 230.222656 434.101562 237.476562 436.707031 C 244.730469 439.3125 252.042969 441.746094 259.414062 444.003906 C 266.785156 446.261719 274.203125 448.34375 281.671875 450.25 C 289.140625 452.15625 296.652344 453.882812 304.203125 455.433594 C 311.753906 456.980469 319.335938 458.351562 326.953125 459.539062 C 334.570312 460.730469 342.207031 461.738281 349.871094 462.5625 C 357.535156 463.390625 365.214844 464.035156 372.910156 464.496094 C 380.605469 464.957031 388.304688 465.238281 396.011719 465.332031 C 403.722656 465.429688 411.425781 465.34375 419.128906 465.074219 C 426.832031 464.804688 434.527344 464.351562 442.207031 463.714844 C 449.890625 463.082031 457.554688 462.261719 465.195312 461.265625 C 472.839844 460.265625 480.457031 459.085938 488.042969 457.726562 C 495.628906 456.367188 503.179688 454.824219 510.695312 453.105469 C 518.210938 451.386719 525.679688 449.492188 533.101562 447.417969 C 540.527344 445.34375 547.898438 443.09375 555.214844 440.671875 C 562.53125 438.25 569.789062 435.652344 576.984375 432.882812 C 584.175781 430.117188 591.300781 427.179688 598.355469 424.074219 C 605.410156 420.964844 612.386719 417.695312 619.285156 414.257812 C 626.1875 410.820312 633 407.21875 639.726562 403.457031 C 646.457031 399.699219 653.09375 395.777344 659.632812 391.703125 C 666.175781 387.625 672.617188 383.398438 678.960938 379.015625 C 472.1875 516.953125 183.089844 477.296875 27.007812 267.421875 Z M 26.824219 267.242188 " fill-opacity="1" fill-rule="nonzero"/></g></svg>